<svg width="42" height="43" viewBox="0 0 42 43" fill="none" xmlns="http://www.w3.org/2000/svg">
<path d="M23.1537 1.99526C22.7254 1.08271 21.8081 0.5 20.8001 0.5C19.792 0.5 18.8748 1.08271 18.4464 1.99526L13.4116 12.7218L2.20761 14.4325C1.24426 14.5796 0.444029 15.2531 0.134577 16.1772C-0.174823 17.1014 0.0585519 18.1209 0.739128 18.8185L8.92268 27.2058L6.98521 39.0814C6.8249 40.0642 7.23986 41.0522 8.05381 41.6252C8.86777 42.1988 9.93777 42.257 10.8091 41.7755L20.8001 36.2526L30.791 41.7755C31.6624 42.257 32.7323 42.1988 33.5463 41.6252C34.36 41.0522 34.775 40.0642 34.6148 39.0814L32.6774 27.2058L40.8611 18.8185C41.5418 18.1209 41.7747 17.1014 41.4653 16.1772C41.1559 15.2531 40.3556 14.5796 39.3926 14.4325L28.1885 12.7218L23.1537 1.99526Z" fill="#F3D98E"/>
</svg>
